<svg width="26" height="26" viewBox="0 0 26 26" fill="none" xmlns="http://www.w3.org/2000/svg">
<path d="M22.8228 0.314819H4.07275C2.34932 0.314819 0.947754 1.71638 0.947754 3.43982V22.1898C0.947754 23.9133 2.34932 25.3148 4.07275 25.3148H22.8228C24.5462 25.3148 25.9478 23.9133 25.9478 22.1898V3.43982C25.9478 1.71638 24.5462 0.314819 22.8228 0.314819Z" fill="#1976D2"/>
<path d="M19.9893 11.1296H16.083V8.00464C16.083 7.14214 16.783 7.22339 17.6455 7.22339H19.208V3.31714H16.083C13.4939 3.31714 11.3955 5.41558 11.3955 8.00464V11.1296H8.27051V15.0359H11.3955V23.6296H16.083V15.0359H18.4268L19.9893 11.1296Z" fill="#FAFAFA"/>
</svg>
